:SAMPLES-PER-SECOND 30
:FULLY-SPECIFIED
:DEGREES
520
root  -69.0061 39.9458 -3.13638 44.2542 84.4372 43.5357
RightUpLeg  -6.36608 4.07642 -9.63675
RightLeg  47.6992 0.665049 0.464481
RightFoot  -7.45249 -0.438839 11.385
RightToes  -2.32831e-009 0 -3.6325e-017
Spine  7.3213 2.77794 -2.05628
Spine1  6.06632 3.06519 -4.19696
HEad  -22.7233 -5.77012 -1.02041
LeftShoulder1  -0.473484 4.71277 -33.0175
LeftArm  -1.25436 15.9775 -35.7145
LeftForeArm  37.7808 -6.97002 -9.58882
LeftHand  -0.231446 10.766 -3.55933
RightShoulder  -1.17842 -6.71027 30.2379
RightArm  21.5439 -0.892088 44.1867
RightForeArm  3.88672 21.907 4.71216
RightHand  -0.230361 8.14281 -2.35002
LeftUpLeg  -6.08701 4.49298 -7.49083
LeftLeg  14.5286 12.6994 0.939624
LeftFoot  -9.7236 -0.00771849 4.69068
LeftToes  8.91272e-011 -1.70619e-011 7.36378e-012
521
root  -68.7435 39.9649 -3.11534 48.2521 85.4068 47.4201
RightUpLeg  -9.44138 3.31623 -9.95924
RightLeg  47.4263 -0.648771 -1.07198
RightFoot  -8.20122 -0.352342 10.7894
RightToes  -2.32831e-009 0 -3.6325e-017
Spine  7.80962 2.54078 -2.12182
Spine1  6.24227 2.65798 -3.25037
HEad  -23.9267 -5.80666 -1.00634
LeftShoulder1  -0.518669 4.82023 -33.2491
LeftArm  -1.98993 15.6777 -36.7902
LeftForeArm  37.9237 -6.61547 -9.45242
LeftHand  -0.246517 11.0286 -3.66487
RightShoulder  -1.24062 -6.84277 30.6509
RightArm  22.2445 -1.67334 43.8201
RightForeArm  3.47324 20.4761 4.87587
RightHand  -0.213888 8.18574 -2.20417
LeftUpLeg  -5.71819 4.72811 -6.97525
LeftLeg  14.4844 11.5176 0.735027
LeftFoot  -10.195 0.0144825 4.71199
LeftToes  8.91272e-011 -1.70619e-011 7.36378e-012
522
root  -68.4568 39.964 -3.09603 53.0835 86.2109 52.477
RightUpLeg  -12.0601 2.46301 -10.1756
RightLeg  45.5917 -1.34394 -1.78041
RightFoot  -8.38604 -0.321863 10.2528
RightToes  -2.32831e-009 0 -3.6325e-017
Spine  8.55034 2.12722 -2.20451
Spine1  6.55615 2.0835 -2.39123
HEad  -24.7748 -5.35516 -0.978163
LeftShoulder1  -0.584592 4.98331 -33.3578
LeftArm  -2.07909 14.8477 -38.1216
LeftForeArm  38.0481 -6.56545 -9.5082
LeftHand  -0.241348 10.9752 -3.60918
RightShoulder  -1.16986 -6.66855 30.4479
RightArm  22.1262 -2.64794 44.2754
RightForeArm  5.21763 18.9888 5.14019
RightHand  -0.145705 7.42992 -1.67483
LeftUpLeg  -5.02718 4.97121 -6.53904
LeftLeg  14.5888 10.4098 0.618047
LeftFoot  -10.6718 0.0353483 4.86245
LeftToes  8.91272e-011 -1.70619e-011 7.36378e-012
523
root  -68.1226 39.9674 -3.06643 56.2937 86.5338 55.9324
RightUpLeg  -14.3297 1.78154 -10.426
RightLeg  42.044 -1.03027 -1.28504
RightFoot  -8.13702 -0.330695 9.81892
RightToes  -2.32831e-009 0 -3.6325e-017
Spine  9.32932 1.84984 -2.62758
Spine1  6.50634 1.63578 -1.49364
HEad  -24.6999 -5.39823 -0.957531
LeftShoulder1  -0.620692 5.06741 -33.5387
LeftArm  -1.30151 13.6639 -39.2092
LeftForeArm  38.0302 -6.69 -9.82639
LeftHand  -0.230222 11.2518 -3.20008
RightShoulder  -1.11023 -6.51056 30.3944
RightArm  22.9003 -3.6091 44.4906
RightForeArm  7.34838 17.625 5.5729
RightHand  -0.0137122 6.45507 -0.472567
LeftUpLeg  -4.20079 5.08326 -6.34694
LeftLeg  14.679 10.1308 0.759448
LeftFoot  -11.2322 0.0637066 4.32947
LeftToes  8.91272e-011 -1.70619e-011 7.36378e-012
524
root  -67.7547 39.9776 -3.03355 56.3613 86.868 56.0504
RightUpLeg  -16.2467 1.18119 -10.2886
RightLeg  36.6269 -0.261937 -0.467961
RightFoot  -8.26329 -0.336505 10.3996
RightToes  -2.32831e-009 0 -3.6325e-017
Spine  9.77046 1.6256 -2.90008
Spine1  6.52119 1.24794 -0.465486
HEad  -24.6274 -5.48643 -1.17911
LeftShoulder1  -0.608475 5.02577 -33.8167
LeftArm  0.117802 12.1637 -40.1589
LeftForeArm  38.0477 -7.3602 -10.1443
LeftHand  -0.239433 10.7737 -3.71012
RightShoulder  -1.12861 -6.55979 30.3998
RightArm  23.1047 -4.45489 44.775
RightForeArm  10.3221 16.381 6.02895
RightHand  0.022586 5.76969 -0.0760348
LeftUpLeg  -3.42559 5.30208 -5.94119
LeftLeg  14.5192 9.56156 0.639754
LeftFoot  -11.8254 0.0881987 4.12312
LeftToes  8.91272e-011 -1.70619e-011 7.36378e-012
